<?xml version="1.0" encoding="UTF-8"?>
<svg version="1.1" xmlns="http://www.w3.org/2000/svg" width="50" height="50">
<path d="M0 0 C0.66 0 1.32 0 2 0 C3.2019586 6.22833095 2.93161919 9.37129115 0 15 C2.31 15 4.62 15 7 15 C7 20.28 7 25.56 7 31 C7.66 31 8.32 31 9 31 C8.125 34.875 8.125 34.875 7 36 C4.66702567 36.04092937 2.33294775 36.04241723 0 36 C0.515625 37.051875 1.03125 38.10375 1.5625 39.1875 C2.99688183 42.48523767 3.16452107 44.5064368 2 48 C0.68 47.67 -0.64 47.34 -2 47 C-1.979375 46.113125 -1.95875 45.22625 -1.9375 44.3125 C-1.99286219 41.37830369 -2.3305734 38.84506304 -3 36 C-4.32 36 -5.64 36 -7 36 C-6.484375 37.051875 -5.96875 38.10375 -5.4375 39.1875 C-4.00311817 42.48523767 -3.83547893 44.5064368 -5 48 C-6.32 47.67 -7.64 47.34 -9 47 C-8.979375 46.113125 -8.95875 45.22625 -8.9375 44.3125 C-8.99286219 41.37830369 -9.3305734 38.84506304 -10 36 C-10.94875 36.04125 -11.8975 36.0825 -12.875 36.125 C-16 36 -16 36 -18 34 C-18 33.01 -18 32.02 -18 31 C-17.01 31 -16.02 31 -15 31 C-15 25.72 -15 20.44 -15 15 C-13.35 15 -11.7 15 -10 15 C-9.67 12.69 -9.34 10.38 -9 8 C-10.43739513 7.97287934 -11.87493863 7.95354933 -13.3125 7.9375 C-14.11300781 7.92589844 -14.91351563 7.91429687 -15.73828125 7.90234375 C-18.16861334 7.90342145 -18.16861334 7.90342145 -21 9 C-20.01 10.485 -20.01 10.485 -19 12 C-19.2421875 15.35546875 -19.2421875 15.35546875 -19.875 19.1875 C-20.07867188 20.45980469 -20.28234375 21.73210938 -20.4921875 23.04296875 C-20.65976562 24.01878906 -20.82734375 24.99460937 -21 26 C-21.66 26 -22.32 26 -23 26 C-23.06058594 25.32453125 -23.12117188 24.6490625 -23.18359375 23.953125 C-23.26738281 23.06109375 -23.35117187 22.1690625 -23.4375 21.25 C-23.51871094 20.36828125 -23.59992187 19.4865625 -23.68359375 18.578125 C-23.92445998 16.04911445 -23.92445998 16.04911445 -24.6171875 13.87109375 C-25.26341929 10.712471 -23.59155896 8.65259827 -22 6 C-19.48653169 4.74326584 -17.42571862 4.71024161 -14.625 4.5 C-11.30127744 4.24915301 -8.20986584 3.91275806 -5 3 C-3.3557649 7.93270529 -4.81384408 10.54024193 -7 15 C-5.68 15 -4.36 15 -3 15 C-2.95101562 14.25234375 -2.90203125 13.5046875 -2.8515625 12.734375 C-2.77679688 11.74953125 -2.70203125 10.7646875 -2.625 9.75 C-2.55539063 8.77546875 -2.48578125 7.8009375 -2.4140625 6.796875 C-2.01534751 4.10366811 -1.36492937 2.33036721 0 0 Z M-2 22 C-2 22.66 -2 23.32 -2 24 C-2.99 24.33 -3.98 24.66 -5 25 C-4.01 25 -3.02 25 -2 25 C-2 26.32 -2 27.64 -2 29 C-4.97 29 -7.94 29 -11 29 C-11 29.33 -11 29.66 -11 30 C-6.05 30 -1.1 30 4 30 C3.34 29.67 2.68 29.34 2 29 C2 26.69 2 24.38 2 22 C0.68 22 -0.64 22 -2 22 Z " fill="#F9AF04" transform="translate(40,1)"/>
<path d="M0 0 C2.97 0 5.94 0 9 0 C9.061875 1.19625 9.12375 2.3925 9.1875 3.625 C9.57598466 6.9683225 10.25804156 8.67732663 12.5625 11.125 C15 14 15 14 15.3125 17.375 C15.209375 18.24125 15.10625 19.1075 15 20 C11.71646451 21.64176774 8.10480362 21.18454039 4.5 21.1875 C3.71496094 21.19974609 2.92992187 21.21199219 2.12109375 21.22460938 C0.07936274 21.22986254 -1.96192251 21.1222018 -4 21 C-4.66 20.34 -5.32 19.68 -6 19 C-5.875 16.125 -5.875 16.125 -5 13 C-4.01 12.1028125 -4.01 12.1028125 -3 11.1875 C0.10016781 7.79669145 -0.26560209 4.51523546 0 0 Z M3 2 C2.67 4.97 2.34 7.94 2 11 C4.31 11.66 6.62 12.32 9 13 C8.34 11.35 7.68 9.7 7 8 C6.01 8 5.02 8 4 8 C4 7.34 4 6.68 4 6 C4.99 5.67 5.98 5.34 7 5 C6.01 5 5.02 5 4 5 C3.67 4.01 3.34 3.02 3 2 Z " fill="#FAAF04" transform="translate(7,28)"/>
<path d="M0 0 C1.67542976 0.28604898 3.34385343 0.61781233 5 1 C5 2.32 5 3.64 5 5 C4.34 5 3.68 5 3 5 C3.020625 6.03125 3.04125 7.0625 3.0625 8.125 C3 12 3 12 2.375 15.3125 C2.25125 16.199375 2.1275 17.08625 2 18 C2.66 18.66 3.32 19.32 4 20 C4.125 23.125 4.125 23.125 4 26 C2.56260487 26.02712066 1.12506137 26.04645067 -0.3125 26.0625 C-1.51326172 26.07990234 -1.51326172 26.07990234 -2.73828125 26.09765625 C-5 26 -5 26 -8 25 C-8.25046041 17.48618785 -8.25046041 17.48618785 -6.9375 14.9375 C-5.4598371 11.88366333 -6.37810772 9.23383987 -7 6 C-5.35 5.67 -3.7 5.34 -2 5 C-0.89807442 8.26199161 -1.07713095 9.92458206 -2.4375 13.0625 C-3.57706918 15.72490153 -4 17.02692088 -4 20 C-3.79503906 19.36191406 -3.59007812 18.72382813 -3.37890625 18.06640625 C-2.97478516 16.82697266 -2.97478516 16.82697266 -2.5625 15.5625 C-2.29566406 14.73878906 -2.02882813 13.91507813 -1.75390625 13.06640625 C-1 11 -1 11 0 10 C0.13919537 7.42488566 0.06427257 5.25709026 -0.5625 2.75 C-0.706875 2.1725 -0.85125 1.595 -1 1 C-0.67 0.67 -0.34 0.34 0 0 Z " fill="#FAAF04" transform="translate(12,1)"/>
<path d="M0 0 C0.66 0 1.32 0 2 0 C2 1.98 2 3.96 2 6 C1.34 6 0.68 6 0 6 C0 4.02 0 2.04 0 0 Z " fill="#F9AF04" transform="translate(39,24)"/>
</svg>
