<?xml version="1.0" encoding="UTF-8"?>
<svg version="1.1" xmlns="http://www.w3.org/2000/svg" width="50" height="50">
<path d="M0 0 C1.04929687 -0.01417969 2.09859375 -0.02835937 3.1796875 -0.04296875 C6.08814913 0.18461644 7.71322549 0.58899829 10.125 2.1875 C11.32772819 4.59295638 11.22571472 6.13746953 11.1875 8.8125 C11.17847656 9.62976562 11.16945312 10.44703125 11.16015625 11.2890625 C11.14855469 11.91554688 11.13695312 12.54203125 11.125 13.1875 C11.73988281 13.14109375 12.35476562 13.0946875 12.98828125 13.046875 C13.79652344 13.01078125 14.60476562 12.9746875 15.4375 12.9375 C16.23800781 12.89109375 17.03851563 12.8446875 17.86328125 12.796875 C20.125 13.1875 20.125 13.1875 21.89453125 14.828125 C23.43404016 17.78007224 23.52489563 19.86808318 23.5 23.1875 C23.51160156 24.734375 23.51160156 24.734375 23.5234375 26.3125 C23.07270707 29.56482939 22.50444723 30.93936884 20.125 33.1875 C17.86328125 33.796875 17.86328125 33.796875 15.4375 33.9375 C14.62925781 33.99421875 13.82101563 34.0509375 12.98828125 34.109375 C12.06595703 34.14804688 12.06595703 34.14804688 11.125 34.1875 C11.186875 35.445625 11.24875 36.70375 11.3125 38 C11.3194144 41.91355243 11.3194144 41.91355243 9.75 44.125 C6.45158678 46.2816548 4.18300653 46.35095962 0.25 46.375 C-0.79929687 46.38917969 -1.84859375 46.40335938 -2.9296875 46.41796875 C-5.83814913 46.19038356 -7.46322549 45.78600171 -9.875 44.1875 C-11.07772819 41.78204362 -10.97571472 40.23753047 -10.9375 37.5625 C-10.92396484 36.33660156 -10.92396484 36.33660156 -10.91015625 35.0859375 C-10.89855469 34.45945313 -10.88695312 33.83296875 -10.875 33.1875 C-11.48988281 33.23390625 -12.10476563 33.2803125 -12.73828125 33.328125 C-13.95064453 33.38226563 -13.95064453 33.38226563 -15.1875 33.4375 C-15.98800781 33.48390625 -16.78851563 33.5303125 -17.61328125 33.578125 C-19.875 33.1875 -19.875 33.1875 -21.64453125 31.546875 C-23.18404016 28.59492776 -23.27489563 26.50691682 -23.25 23.1875 C-23.25773437 22.15625 -23.26546875 21.125 -23.2734375 20.0625 C-22.82270707 16.81017061 -22.25444723 15.43563116 -19.875 13.1875 C-17.61328125 12.578125 -17.61328125 12.578125 -15.1875 12.4375 C-14.37925781 12.38078125 -13.57101562 12.3240625 -12.73828125 12.265625 C-12.12339844 12.23984375 -11.50851562 12.2140625 -10.875 12.1875 C-10.936875 10.929375 -10.99875 9.67125 -11.0625 8.375 C-11.0694144 4.46144757 -11.0694144 4.46144757 -9.5 2.25 C-6.20158678 0.0933452 -3.93300653 0.02404038 0 0 Z M-7.5 5 C-9.14108577 7.18019272 -9.14108577 7.18019272 -8.875 10.1875 C-5.575 10.1875 -2.275 10.1875 1.125 10.1875 C1.125 11.8375 1.125 13.4875 1.125 15.1875 C-0.05578125 15.15269531 -1.2365625 15.11789063 -2.453125 15.08203125 C-4.01040242 15.05388768 -5.56769525 15.02658813 -7.125 15 C-7.90230469 14.97486328 -8.67960937 14.94972656 -9.48046875 14.92382812 C-12.89245793 14.88008467 -15.27778458 14.90280259 -18.390625 16.38671875 C-20.33787308 18.74903813 -20.41117265 20.14899778 -20.375 23.1875 C-20.3853125 24.05375 -20.395625 24.92 -20.40625 25.8125 C-20.07219519 28.32631935 -20.07219519 28.32631935 -18.015625 29.98828125 C-15.45310688 31.42385253 -13.76803531 31.42858628 -10.875 31.1875 C-10.730625 30.053125 -10.58625 28.91875 -10.4375 27.75 C-9.875 24.1875 -9.875 24.1875 -8.875 23.1875 C-5.72311341 22.98439514 -2.5789488 22.84089339 0.578125 22.7578125 C3.3973042 22.62617767 5.62398099 22.48770979 8.07421875 21.01953125 C9.58595178 18.38383315 9.55876408 16.27235796 9.5625 13.25 C9.58183594 12.20972656 9.60117187 11.16945313 9.62109375 10.09765625 C9.00439686 6.48002488 8.07864269 5.32321086 5.125 3.1875 C0.53158351 2.18637077 -3.60648132 2.31161805 -7.5 5 Z M11.125 15.1875 C10.980625 16.321875 10.83625 17.45625 10.6875 18.625 C10.125 22.1875 10.125 22.1875 9.125 23.1875 C5.97311341 23.39060486 2.8289488 23.53410661 -0.328125 23.6171875 C-3.1473042 23.74882233 -5.37398099 23.88729021 -7.82421875 25.35546875 C-9.33595178 27.99116685 -9.30876408 30.10264204 -9.3125 33.125 C-9.33183594 34.16527344 -9.35117188 35.20554687 -9.37109375 36.27734375 C-8.75439686 39.89497512 -7.82864269 41.05178914 -4.875 43.1875 C-1.48673968 43.92596699 1.71199857 43.7601132 5.125 43.1875 C7.82142699 41.58044394 7.82142699 41.58044394 9.125 39.1875 C9.125 38.1975 9.125 37.2075 9.125 36.1875 C5.825 36.1875 2.525 36.1875 -0.875 36.1875 C-0.875 34.5375 -0.875 32.8875 -0.875 31.1875 C0.30578125 31.22230469 1.4865625 31.25710937 2.703125 31.29296875 C4.26040242 31.32111232 5.81769525 31.34841187 7.375 31.375 C8.15230469 31.40013672 8.92960937 31.42527344 9.73046875 31.45117188 C13.14245793 31.49491533 15.52778458 31.47219741 18.640625 29.98828125 C20.58787308 27.62596187 20.66117265 26.22600222 20.625 23.1875 C20.6353125 22.32125 20.645625 21.455 20.65625 20.5625 C20.32219519 18.04868065 20.32219519 18.04868065 18.265625 16.38671875 C15.70310688 14.95114747 14.01803531 14.94641372 11.125 15.1875 Z " fill="#FAB004" transform="translate(24.875,1.8125)"/>
<path d="M0 0 C1.32 0 2.64 0 4 0 C4 1.32 4 2.64 4 4 C2.68 4 1.36 4 0 4 C0 2.68 0 1.36 0 0 Z " fill="#FAAF04" transform="translate(28,39)"/>
<path d="M0 0 C1.32 0 2.64 0 4 0 C4 1.32 4 2.64 4 4 C2.68 4 1.36 4 0 4 C0 2.68 0 1.36 0 0 Z " fill="#FAAF04" transform="translate(18,7)"/>
</svg>
